<?xml version="1.0" standalone="no"?>
<!DOCTYPE svg PUBLIC "-//W3C//DTD SVG 20010904//EN"
 "http://www.w3.org/TR/2001/REC-SVG-20010904/DTD/svg10.dtd">
<svg version="1.0" xmlns="http://www.w3.org/2000/svg"
 width="1076.000000pt" height="1076.000000pt" viewBox="0 0 1076.000000 1076.000000"
 preserveAspectRatio="xMidYMid meet">
<metadata>
Created by potrace 1.11, written by Peter Selinger 2001-2013
</metadata>
<g transform="translate(0.000000,1076.000000) scale(0.100000,-0.100000)"
fill="#000000" stroke="none">
<path d="M9078 10745 c-2 -2 -18 -5 -36 -8 -44 -7 -145 -38 -156 -49 -6 -4
-15 -8 -22 -8 -6 0 -29 -8 -50 -17 -22 -9 -41 -17 -44 -18 -3 -1 -23 -10 -45
-20 -22 -10 -42 -19 -45 -20 -3 0 -57 -27 -120 -59 -63 -32 -137 -70 -165 -84
-27 -14 -52 -29 -55 -33 -3 -3 -27 -19 -55 -34 -27 -15 -84 -49 -125 -76 -41
-27 -81 -52 -89 -56 -26 -12 -605 -402 -636 -427 -62 -52 -5 -41 150 30 164
75 384 147 490 160 22 3 51 8 65 11 14 3 27 6 30 5 3 0 37 -3 76 -5 38 -3 83
-11 99 -18 66 -29 116 -106 117 -179 0 -41 -14 -154 -22 -162 -1 -2 -3 -11 -5
-20 -6 -33 -28 -93 -38 -105 -5 -7 -6 -13 -3 -13 4 0 -1 -12 -12 -27 -11 -16
-28 -46 -38 -68 -23 -50 -125 -228 -134 -235 -3 -3 -9 -13 -13 -22 -8 -22
-181 -280 -201 -301 -9 -8 -16 -18 -16 -21 0 -4 -106 -150 -143 -196 -7 -9
-39 -51 -72 -95 -122 -162 -155 -195 -193 -195 -22 0 -37 9 -56 33 -15 17 -30
37 -35 43 -4 5 -13 20 -20 32 -18 35 -122 167 -179 231 -122 133 -228 235
-342 325 -47 37 -93 74 -103 82 -9 8 -20 14 -23 14 -3 0 -20 11 -37 24 -69 51
-385 226 -409 226 -3 0 -22 7 -42 15 -20 8 -38 15 -41 14 -4 0 -17 7 -31 15
-13 9 -24 14 -24 12 0 -3 -36 9 -80 25 -44 16 -80 26 -80 23 0 -4 -6 -2 -12 4
-7 6 -31 14 -53 18 -50 10 -43 8 -93 23 -24 7 -55 14 -70 16 -15 2 -38 6 -52
10 -36 7 -98 15 -187 24 -94 9 -560 7 -623 -3 -41 -6 -187 -38 -235 -52 -11
-3 -30 -7 -42 -10 -12 -2 -35 -9 -50 -15 -16 -6 -35 -12 -43 -14 -42 -9 -235
-77 -295 -105 -36 -17 -95 -39 -98 -37 -1 1 -17 -8 -34 -21 -18 -13 -33 -21
-33 -18 0 3 -23 -8 -50 -24 -28 -17 -53 -30 -56 -30 -3 0 -30 -16 -60 -35 -30
-19 -59 -35 -64 -35 -5 0 -13 -6 -17 -14 -4 -7 -19 -19 -32 -26 -14 -7 -30
-17 -35 -21 -6 -5 -58 -46 -116 -91 -58 -46 -150 -128 -205 -183 -109 -110
-121 -124 -210 -235 -33 -41 -62 -77 -65 -80 -8 -7 -119 -177 -141 -216 -10
-19 -28 -49 -38 -68 -19 -34 -23 -40 -59 -111 -17 -33 -46 -103 -97 -230 -5
-11 -7 -23 -7 -27 1 -5 -3 -8 -9 -8 -5 0 -8 -4 -4 -9 3 -5 -3 -33 -14 -63 -19
-50 -63 -217 -76 -283 -3 -16 -7 -40 -9 -51 -23 -119 -31 -242 -30 -464 1
-118 4 -235 7 -260 11 -83 19 -155 21 -182 0 -16 3 -28 6 -28 3 0 6 -8 6 -17
1 -21 12 -80 20 -105 3 -9 6 -25 8 -35 12 -59 59 -210 101 -318 29 -77 139
-301 159 -325 7 -8 16 -23 19 -32 3 -10 34 -59 69 -110 69 -104 66 -99 108
-149 16 -20 30 -39 30 -41 0 -16 248 -271 350 -361 30 -27 85 -68 122 -93 77
-52 77 -52 82 -94 5 -42 -48 -94 -207 -204 -67 -46 -130 -91 -139 -100 -10 -9
-18 -13 -18 -10 0 3 -18 -8 -39 -25 -21 -17 -41 -31 -44 -31 -3 0 -45 -26 -93
-59 -225 -148 -541 -313 -714 -371 -77 -26 -112 -33 -186 -34 -124 -1 -165 21
-206 112 -27 60 -31 85 -30 174 1 68 30 187 69 278 3 8 7 17 8 20 4 12 21 52
71 173 30 70 54 130 54 133 0 3 9 19 21 35 11 16 18 29 15 29 -3 0 3 16 14 35
11 20 20 46 20 58 -1 32 -14 16 -244 -288 -41 -55 -79 -104 -83 -110 -5 -5
-19 -26 -33 -45 -13 -19 -27 -37 -30 -40 -3 -3 -16 -22 -30 -42 -14 -21 -28
-38 -32 -38 -5 0 -8 -4 -8 -10 0 -5 -26 -47 -58 -92 -32 -46 -74 -105 -93
-133 -19 -27 -36 -52 -39 -55 -3 -3 -16 -25 -29 -50 -14 -25 -46 -77 -71 -116
-86 -131 -263 -521 -277 -607 -3 -16 -8 -40 -12 -51 -18 -50 2 -126 46 -171
35 -36 36 -36 111 -34 66 2 123 13 316 63 10 3 48 19 83 36 36 16 71 30 79 30
8 0 14 5 14 10 0 6 7 10 15 10 19 0 171 76 180 90 3 5 15 10 26 10 10 0 19 4
19 9 0 5 9 13 21 16 11 4 54 27 95 51 41 24 79 44 84 44 6 0 10 5 10 10 0 6 6
10 13 10 6 0 46 22 87 50 41 27 80 50 87 50 6 0 13 3 15 8 2 4 44 34 93 67 50
33 99 68 109 77 11 10 28 20 38 24 10 3 18 9 18 13 0 4 10 12 23 18 31 15 481
334 485 344 2 5 8 9 14 9 5 0 34 20 62 45 29 25 56 45 60 45 4 0 13 6 21 13 7
6 26 22 41 34 16 12 66 52 112 88 45 36 86 65 91 65 5 0 11 4 13 9 3 9 86 75
138 111 54 37 175 125 180 130 3 3 27 23 54 45 27 21 60 48 72 60 12 11 52 47
89 80 37 33 77 69 89 80 22 21 128 113 180 156 16 13 34 30 42 37 7 6 17 12
23 12 6 0 11 4 11 8 0 5 21 24 48 42 26 19 61 48 78 65 18 16 52 46 75 65 24
19 53 44 65 55 11 11 54 49 95 85 41 36 79 70 85 75 6 6 50 46 99 90 182 167
231 211 279 258 27 26 50 47 51 47 2 0 29 25 62 56 210 201 415 399 542 522
80 78 149 142 153 142 5 0 8 4 8 10 0 5 23 31 51 57 95 89 533 529 594 597 33
37 80 89 105 115 76 81 244 263 291 315 24 28 51 57 59 66 35 40 130 148 156
180 16 19 38 44 49 56 11 12 36 40 55 64 19 24 67 80 105 125 39 45 90 106
115 136 25 29 61 72 80 94 19 23 51 61 70 85 19 23 43 52 53 64 10 11 31 36
45 55 15 19 32 39 37 45 6 6 35 42 65 81 30 38 60 77 67 85 111 140 156 199
254 330 64 85 160 220 212 300 53 80 100 150 105 156 18 21 132 214 132 223 0
5 6 16 13 23 6 8 26 41 42 73 17 33 33 62 38 63 4 2 7 12 7 23 0 10 5 19 10
19 6 0 10 5 10 11 0 6 7 25 15 42 67 147 104 327 83 406 -20 70 -64 92 -179
90 -43 -1 -80 -3 -81 -4z m-5434 -2304 c5 -8 -22 -110 -90 -336 -19 -62 -50
-197 -59 -250 -17 -115 -27 -503 -12 -512 4 -2 3 -12 -1 -21 -4 -9 -7 -33 -6
-52 3 -65 13 -165 19 -190 14 -66 16 -76 19 -95 2 -11 9 -40 16 -65 7 -25 14
-53 16 -63 5 -30 74 -228 95 -276 32 -72 103 -211 138 -269 17 -29 31 -56 31
-61 0 -4 9 -16 20 -26 11 -10 20 -24 20 -31 0 -7 3 -14 8 -16 4 -1 23 -26 42
-55 20 -28 51 -71 70 -95 42 -52 272 -288 282 -288 3 0 19 -12 35 -27 41 -40
65 -58 157 -120 114 -79 138 -106 131 -150 -11 -69 -58 -137 -146 -209 -30
-24 -165 -105 -183 -109 -6 -1 -19 -6 -29 -10 -10 -4 -30 -2 -45 5 -15 6 -27
11 -27 9 0 -4 -120 77 -148 100 -201 162 -360 325 -464 475 -23 34 -46 66 -50
71 -10 12 -97 163 -106 185 -4 8 -11 22 -17 30 -10 17 -70 149 -70 156 0 2 -9
23 -19 47 -35 75 -99 273 -116 355 -2 9 -8 37 -13 62 -47 210 -56 434 -27 705
11 96 77 367 112 455 3 8 7 20 8 25 2 6 11 31 22 55 19 42 29 69 35 88 6 21
124 246 159 301 58 94 158 210 181 211 4 0 9 -4 12 -9z"/>
<path d="M7778 7587 c-23 -24 -72 -75 -107 -113 -59 -64 -266 -283 -405 -428
-32 -33 -156 -162 -276 -286 -120 -124 -233 -241 -252 -261 -97 -105 -118
-129 -134 -155 -21 -33 -259 -271 -440 -441 -65 -61 -144 -136 -175 -165 -31
-29 -114 -107 -184 -173 -236 -222 -368 -356 -359 -365 21 -21 104 -27 320
-25 126 1 245 5 264 8 19 4 55 9 80 12 55 6 93 13 145 26 22 5 53 12 68 15 16
3 46 12 67 19 21 7 41 11 44 8 3 -4 6 -1 6 6 0 7 4 9 10 6 5 -3 18 -1 29 4 34
18 333 111 357 111 16 0 24 -6 24 -16 0 -20 -122 -140 -151 -149 -11 -4 -17
-11 -14 -16 4 -5 1 -9 -5 -9 -6 0 -42 -20 -80 -45 -86 -56 -262 -145 -355
-180 -79 -30 -359 -123 -390 -130 -11 -3 -56 -14 -99 -24 -139 -35 -225 -44
-436 -44 -144 0 -348 10 -395 19 -23 5 -75 -14 -75 -27 0 -5 -6 -9 -14 -9 -8
0 -16 -4 -18 -8 -1 -5 -30 -28 -62 -52 -73 -53 -90 -67 -127 -104 -37 -35 -28
-49 48 -73 91 -29 88 -15 88 -404 0 -186 -3 -341 -7 -345 -11 -11 -157 -15
-1063 -29 -358 -6 -375 -7 -432 -41 -101 -62 -231 -214 -247 -290 -15 -74 -18
-104 -17 -174 2 -104 6 -127 30 -187 18 -47 77 -141 105 -168 34 -33 126 -100
154 -112 46 -19 124 -34 207 -38 67 -4 521 -13 1015 -20 129 -2 240 -4 245 -4
6 -1 11 -181 12 -514 2 -281 4 -802 6 -1157 l4 -645 53 -90 c29 -49 63 -98 75
-110 33 -31 75 -65 80 -65 3 0 19 -9 34 -21 16 -11 59 -31 97 -44 38 -13 87
-30 109 -38 49 -19 102 -14 146 12 19 11 49 23 68 26 18 3 47 13 65 22 45 23
137 93 165 126 14 16 31 35 38 42 7 8 13 17 13 21 0 4 6 15 13 23 16 20 38 85
44 126 2 16 5 305 7 641 2 336 6 616 10 623 4 6 4 11 -1 11 -4 0 -8 40 -8 90
0 49 4 90 8 90 5 0 5 5 1 12 -4 6 -6 81 -6 167 2 153 9 531 11 603 1 27 6 38
21 43 36 12 155 15 675 20 498 5 620 8 675 20 14 2 39 8 55 11 27 6 102 41
115 54 3 3 24 18 46 33 43 29 100 87 87 87 -5 0 -3 4 2 8 6 4 28 41 50 82 l39
75 0 145 c0 193 -17 241 -121 347 -40 40 -77 73 -82 73 -6 0 -14 6 -18 13 -4
7 -30 26 -57 42 l-50 28 -305 3 c-805 8 -1106 16 -1119 28 -13 13 -22 153 -22
346 0 178 4 249 21 322 10 44 14 49 52 60 23 7 47 13 52 14 6 1 12 3 15 4 3 1
16 3 29 6 14 2 45 11 70 20 25 9 54 18 65 20 25 5 106 33 128 45 10 5 22 9 28
9 29 0 369 168 453 224 38 25 73 46 78 46 5 0 9 5 9 10 0 6 6 10 13 10 7 0 24
11 39 25 15 14 30 25 33 25 3 0 13 8 23 18 10 9 30 26 46 37 71 51 274 248
340 329 17 21 46 57 65 79 40 50 152 210 175 252 9 17 26 46 38 65 97 160 218
454 263 640 9 36 18 74 21 85 4 18 12 56 29 145 27 143 27 728 0 820 -2 8 -7
35 -10 60 -9 63 -26 118 -41 131 -9 7 -24 -2 -56 -34z"/>
</g>
</svg>
