<?xml version="1.0" encoding="UTF-8"?>
<svg width="769px" height="769px" viewBox="0 0 769 769" version="1.1" xmlns="http://www.w3.org/2000/svg" xmlns:xlink="http://www.w3.org/1999/xlink">
    <title>bav-lines-insert</title>
    <g id="Page-1" stroke="none" stroke-width="1" fill="none" fill-rule="evenodd">
        <g id="bav-lines-insert" transform="translate(1.087378, 0.898750)" stroke="#000000" stroke-width="0.81370336">
            <g id="g2548" transform="translate(383.728442, 383.177190) scale(-1, 1) translate(-383.728442, -383.177190) translate(0.000000, 29.301608)">
                <g id="g6008-8-4-7" transform="translate(12.170998, 353.392168) scale(-1, 1) rotate(90.000000) translate(-12.170998, -353.392168) translate(-341.221170, 341.221170)">
                    <line x1="679.752514" y1="0.295738687" x2="706.784336" y2="23.9620755" id="path171-7-5-4" transform="translate(693.268425, 12.128907) scale(-1, 1) translate(-693.268425, -12.128907) "></line>
                    <line x1="648.52478" y1="0.592272921" x2="676.752957" y2="23.9988695" id="path171-6-92-0-5" transform="translate(662.638869, 12.295571) scale(-1, 1) translate(-662.638869, -12.295571) "></line>
                    <line x1="619.274831" y1="0.629341894" x2="645.439177" y2="23.423268" id="path171-6-7-0-3-2" transform="translate(632.357004, 12.026305) scale(-1, 1) translate(-632.357004, -12.026305) "></line>
                    <line x1="530.371092" y1="1.04061621" x2="549.273922" y2="24.0763534" id="path171-6-7-5-23-6-5" transform="translate(539.822507, 12.558485) scale(-1, 1) translate(-539.822507, -12.558485) "></line>
                    <line x1="558.955527" y1="1.10099003" x2="581.863731" y2="24.3419959" id="path171-6-7-5-5-75-1-4" transform="translate(570.409629, 12.721493) scale(-1, 1) translate(-570.409629, -12.721493) "></line>
                    <line x1="502.273398" y1="0.568810139" x2="516.301692" y2="23.7430954" id="path171-6-7-5-6-9-0-7" transform="translate(509.287545, 12.155953) scale(-1, 1) translate(-509.287545, -12.155953) "></line>
                    <line x1="589.922285" y1="0.0148521575" x2="614.832889" y2="23.9891358" id="path171-6-7-5-3-2-6-4" transform="translate(602.377587, 12.001994) scale(-1, 1) translate(-602.377587, -12.001994) "></line>
                    <line x1="2.11240704e-14" y1="0.107819995" x2="27.2068272" y2="23.820398" id="path171-2-2-3-4"></line>
                    <line x1="31.8563613" y1="0.300710855" x2="58.1846287" y2="23.6489752" id="path171-6-9-8-2-3"></line>
                    <line x1="62.5422668" y1="0.67848446" x2="87.6856585" y2="24.0114871" id="path171-6-7-1-9-0-0"></line>
                    <line x1="158.990778" y1="0.332901254" x2="176.812158" y2="23.8331852" id="path171-6-7-5-2-7-6-7"></line>
                    <line x1="126.039086" y1="0.389168644" x2="147.72903" y2="23.780527" id="path171-6-7-5-5-7-3-1-8"></line>
                    <line x1="194.464288" y1="0.621275283" x2="207.237254" y2="23.6649212" id="path171-6-7-5-6-0-61-5-6"></line>
                    <line x1="92.7727205" y1="0.112160405" x2="116.568861" y2="23.7318524" id="path171-6-7-5-3-9-2-5-8"></line>
                    <line x1="451.188756" y1="0" x2="443.488115" y2="23.7646921" id="path171-2-3-9-4-8"></line>
                    <line x1="419.130688" y1="0.822063116" x2="412.87274" y2="23.3650527" id="path171-6-9-6-3-7-4"></line>
                    <line x1="386.837272" y1="0.583217726" x2="382.528092" y2="23.4582896" id="path171-6-7-1-0-1-6-3"></line>
                    <line x1="287.097928" y1="0.619502852" x2="292.974862" y2="23.7539756" id="path171-6-7-5-2-6-9-5-1"></line>
                    <line x1="317.422063" y1="0.989397034" x2="322.270992" y2="23.8095645" id="path171-6-7-5-5-7-2-4-6-4"></line>
                    <line x1="255.326075" y1="0.602907511" x2="262.369803" y2="23.5645127" id="path171-6-7-5-6-0-6-7-9-9"></line>
                    <line x1="354.604632" y1="0.397334698" x2="354.71693" y2="23.3197065" id="path171-6-7-5-3-9-1-8-3-2"></line>
                </g>
                <g id="g6008-8-4-7-3" transform="translate(755.253038, 354.379573) scale(-1, 1) rotate(-90.000000) translate(-755.253038, -354.379573) translate(401.881448, 342.175727)">
                    <line x1="679.758746" y1="0.122947084" x2="706.74318" y2="23.7339466" id="path171-7-5-4-6" transform="translate(693.250963, 11.928447) scale(-1, 1) translate(-693.250963, -11.928447) "></line>
                    <line x1="648.380661" y1="0.112370991" x2="677.055047" y2="23.7578832" id="path171-6-92-0-5-7" transform="translate(662.717854, 11.935127) scale(-1, 1) translate(-662.717854, -11.935127) "></line>
                    <line x1="618.55931" y1="0" x2="645.201756" y2="24.0213964" id="path171-6-7-0-3-2-5" transform="translate(631.880533, 12.010698) scale(-1, 1) translate(-631.880533, -12.010698) "></line>
                    <line x1="530.356632" y1="0.610687491" x2="548.920239" y2="23.8839657" id="path171-6-7-5-23-6-5-3" transform="translate(539.638436, 12.247327) scale(-1, 1) translate(-539.638436, -12.247327) "></line>
                    <line x1="558.893758" y1="0.577526057" x2="581.355098" y2="23.9847193" id="path171-6-7-5-5-75-1-4-5" transform="translate(570.124428, 12.281123) scale(-1, 1) translate(-570.124428, -12.281123) "></line>
                    <line x1="501.557877" y1="0.11162809" x2="516.052389" y2="24.3412237" id="path171-6-7-5-6-9-0-7-6" transform="translate(508.805133, 12.226426) scale(-1, 1) translate(-508.805133, -12.226426) "></line>
                    <line x1="589.589125" y1="0.612980538" x2="614.117368" y2="23.5284557" id="path171-6-7-5-3-2-6-4-2" transform="translate(601.853247, 12.070718) scale(-1, 1) translate(-601.853247, -12.070718) "></line>
                    <line x1="7.0413568e-15" y1="0.406506885" x2="25.34943" y2="23.524203" id="path171-2-2-3-4-9"></line>
                    <line x1="30.792777" y1="0.263840769" x2="56.48323" y2="23.5209038" id="path171-6-9-8-2-3-1"></line>
                    <line x1="61.8267464" y1="0.341272045" x2="85.5549958" y2="23.1710211" id="path171-6-7-1-9-0-0-2"></line>
                    <line x1="158.675634" y1="0.204923506" x2="175.518468" y2="23.4667189" id="path171-6-7-5-2-7-6-7-7"></line>
                    <line x1="124.956548" y1="0.248637635" x2="145.442336" y2="23.4659058" id="path171-6-7-5-5-7-3-1-8-0"></line>
                    <line x1="193.404995" y1="0.553624554" x2="206.521734" y2="24.2630496" id="path171-6-7-5-6-0-61-5-6-9"></line>
                    <line x1="91.8887251" y1="0.314422339" x2="114.390603" y2="23.5930119" id="path171-6-7-5-3-9-2-5-8-3"></line>
                    <line x1="450.473236" y1="0.59812838" x2="442.772595" y2="24.3628205" id="path171-2-3-9-4-8-6"></line>
                    <line x1="418.612829" y1="0.26382907" x2="412.15722" y2="23.9631811" id="path171-6-9-6-3-7-4-0"></line>
                    <line x1="386.121751" y1="1.18134611" x2="381.812571" y2="24.056418" id="path171-6-7-1-0-1-6-3-6"></line>
                    <line x1="286.153005" y1="0.214978984" x2="292.259342" y2="24.352104" id="path171-6-7-5-2-6-9-5-1-2"></line>
                    <line x1="316.529563" y1="0.160805754" x2="321.555471" y2="24.4076929" id="path171-6-7-5-5-7-2-4-6-4-6"></line>
                    <line x1="254.371609" y1="0.353228646" x2="261.654283" y2="24.162641" id="path171-6-7-5-6-0-6-7-9-9-1"></line>
                    <line x1="353.889112" y1="0.995463078" x2="354.00141" y2="23.9178349" id="path171-6-7-5-3-9-1-8-3-2-8"></line>
                </g>
            </g>
            <g id="g6008-8-4-7-7" transform="translate(384.762192, 755.702040) rotate(-180.000000) translate(-384.762192, -755.702040) translate(32.179713, 743.603180)">
                <line x1="680.906768" y1="3.3251178e-14" x2="705.164958" y2="23.6285776" id="path171-7-5-4-9" transform="translate(693.035863, 11.814289) scale(-1, 1) translate(-693.035863, -11.814289) "></line>
                <line x1="649.312668" y1="0.451507928" x2="673.717445" y2="24.0791379" id="path171-6-92-0-5-2" transform="translate(661.515056, 12.265323) scale(-1, 1) translate(-661.515056, -12.265323) "></line>
                <line x1="619.094855" y1="0.388104015" x2="643.60868" y2="23.5736439" id="path171-6-7-0-3-2-0" transform="translate(631.351768, 11.980874) scale(-1, 1) translate(-631.351768, -11.980874) "></line>
                <line x1="529.510499" y1="1.1619839" x2="548.413329" y2="24.1977211" id="path171-6-7-5-23-6-5-2" transform="translate(538.961914, 12.679853) scale(-1, 1) translate(-538.961914, -12.679853) "></line>
                <line x1="558.867257" y1="0.256359119" x2="581.704765" y2="23.6485306" id="path171-6-7-5-5-75-1-4-3" transform="translate(570.286011, 11.952445) scale(-1, 1) translate(-570.286011, -11.952445) "></line>
                <line x1="501.412805" y1="0.690177829" x2="515.441099" y2="23.8644631" id="path171-6-7-5-6-9-0-7-7" transform="translate(508.426952, 12.277320) scale(-1, 1) translate(-508.426952, -12.277320) "></line>
                <line x1="589.061693" y1="0.136219847" x2="613.972296" y2="24.1105035" id="path171-6-7-5-3-2-6-4-5" transform="translate(601.516995, 12.123362) scale(-1, 1) translate(-601.516995, -12.123362) "></line>
                <line x1="1.40827136e-14" y1="0.109171255" x2="26.3462349" y2="23.9417656" id="path171-2-2-3-4-92"></line>
                <line x1="32.3019244" y1="0.217798496" x2="57.3240364" y2="23.7703428" id="path171-6-9-8-2-3-2"></line>
                <line x1="61.6816744" y1="0.79985215" x2="86.8250662" y2="24.1328548" id="path171-6-7-1-9-0-0-8"></line>
                <line x1="158.120047" y1="0.736957153" x2="175.951565" y2="23.9545529" id="path171-6-7-5-2-7-6-7-9"></line>
                <line x1="125.254925" y1="0.841091894" x2="146.868438" y2="23.9018947" id="path171-6-7-5-5-7-3-1-8-7"></line>
                <line x1="193.603695" y1="0.742642973" x2="206.376662" y2="23.7862889" id="path171-6-7-5-6-0-61-5-6-3"></line>
                <line x1="92.888165" y1="0.409074864" x2="115.708269" y2="23.8532201" id="path171-6-7-5-3-9-2-5-8-6"></line>
                <line x1="450.328164" y1="0.12136769" x2="442.627523" y2="23.8860598" id="path171-2-3-9-4-8-1"></line>
                <line x1="418.270096" y1="0.943430805" x2="412.012148" y2="23.4864204" id="path171-6-9-6-3-7-4-2"></line>
                <line x1="385.976679" y1="0.704585416" x2="381.667499" y2="23.5796573" id="path171-6-7-1-0-1-6-3-9"></line>
                <line x1="286.010737" y1="0.197020684" x2="291.687067" y2="23.9595777" id="path171-6-7-5-2-6-9-5-1-3"></line>
                <line x1="318.624063" y1="0.184619513" x2="322.051" y2="23.9309322" id="path171-6-7-5-5-7-2-4-6-4-1"></line>
                <line x1="254.465483" y1="0.7242752" x2="261.509211" y2="23.6858803" id="path171-6-7-5-6-0-6-7-9-9-9"></line>
                <line x1="353.622129" y1="0.112359292" x2="353.856338" y2="23.4410742" id="path171-6-7-5-3-9-1-8-3-2-4"></line>
            </g>
            <g id="g6008-8-4-7-7-7" transform="translate(28.624856, 0.000000)">
                <line x1="680.004007" y1="0.564417083" x2="707.27428" y2="24.1137325" id="path171-7-5-4-9-8" transform="translate(693.639144, 12.339075) scale(-1, 1) translate(-693.639144, -12.339075) "></line>
                <line x1="648.776274" y1="0.743929887" x2="677.004451" y2="24.1505265" id="path171-6-92-0-5-2-4" transform="translate(662.890362, 12.447228) scale(-1, 1) translate(-662.890362, -12.447228) "></line>
                <line x1="619.526324" y1="0.78099886" x2="645.69067" y2="23.574925" id="path171-6-7-0-3-2-0-5" transform="translate(632.608497, 12.177962) scale(-1, 1) translate(-632.608497, -12.177962) "></line>
                <line x1="530.622585" y1="1.19227318" x2="549.525415" y2="24.2280104" id="path171-6-7-5-23-6-5-2-0" transform="translate(540.074000, 12.710142) scale(-1, 1) translate(-540.074000, -12.710142) "></line>
                <line x1="559.207021" y1="1.25264699" x2="582.115225" y2="24.4936529" id="path171-6-7-5-5-75-1-4-3-3" transform="translate(570.661123, 12.873150) scale(-1, 1) translate(-570.661123, -12.873150) "></line>
                <line x1="502.524891" y1="0.720467105" x2="516.553185" y2="23.8947523" id="path171-6-7-5-6-9-0-7-7-6" transform="translate(509.539038, 12.307610) scale(-1, 1) translate(-509.539038, -12.307610) "></line>
                <line x1="590.173778" y1="0.166509123" x2="615.084382" y2="24.1407927" id="path171-6-7-5-3-2-6-4-5-1" transform="translate(602.629080, 12.153651) scale(-1, 1) translate(-602.629080, -12.153651) "></line>
                <line x1="2.11240704e-14" y1="3.3251178e-14" x2="27.0503025" y2="24.1159261" id="path171-2-2-3-4-92-0"></line>
                <line x1="32.1089668" y1="0.537719467" x2="58.2457713" y2="24.052645" id="path171-6-9-8-2-3-2-6"></line>
                <line x1="63.1366295" y1="0.618438223" x2="87.9371522" y2="24.1631441" id="path171-6-7-1-9-0-0-8-3"></line>
                <line x1="159.232133" y1="0.767246429" x2="177.063651" y2="23.9848422" id="path171-6-7-5-2-7-6-7-9-2"></line>
                <line x1="126.367011" y1="0.87138117" x2="147.980524" y2="23.932184" id="path171-6-7-5-5-7-3-1-8-7-0"></line>
                <line x1="194.715781" y1="0.772932249" x2="207.488748" y2="23.8165782" id="path171-6-7-5-6-0-61-5-6-3-6"></line>
                <line x1="92.9126958" y1="0.664164617" x2="117.032974" y2="24.0444672" id="path171-6-7-5-3-9-2-5-8-6-1"></line>
                <line x1="451.44025" y1="0.151656966" x2="443.739609" y2="23.9163491" id="path171-2-3-9-4-8-1-5"></line>
                <line x1="419.382182" y1="0.973720081" x2="413.124234" y2="23.5167096" id="path171-6-9-6-3-7-4-2-5"></line>
                <line x1="387.088765" y1="0.734874692" x2="382.856436" y2="24.0668888" id="path171-6-7-1-0-1-6-3-9-4"></line>
                <line x1="287.349421" y1="0.771159817" x2="293.226356" y2="23.9056326" id="path171-6-7-5-2-6-9-5-1-3-7"></line>
                <line x1="317.673557" y1="1.141054" x2="322.522485" y2="23.9612214" id="path171-6-7-5-5-7-2-4-6-4-1-6"></line>
                <line x1="255.577569" y1="0.754564476" x2="262.621297" y2="23.7161696" id="path171-6-7-5-6-0-6-7-9-9-9-5"></line>
                <line x1="354.856126" y1="0.548991664" x2="354.884468" y2="24.0068484" id="path171-6-7-5-3-9-1-8-3-2-4-6"></line>
            </g>
        </g>
    </g>
</svg>