<svg width="751" height="750" viewBox="0 0 751 750" fill="none" xmlns="http://www.w3.org/2000/svg">
<line x1="186.832" y1="561.087" x2="561.597" y2="186.322" stroke="black" stroke-width="3"/>
<line x1="561.597" y1="563.208" x2="186.832" y2="188.443" stroke="black" stroke-width="3"/>
<line x1="108.679" y1="376.682" x2="638.677" y2="376.682" stroke="black" stroke-width="3"/>
<line x1="372.178" y1="643.181" x2="372.178" y2="113.183" stroke="black" stroke-width="3"/>
<circle cx="369.275" cy="374.765" r="114.512" stroke="black" stroke-width="3"/>
<path d="M637.682 456.322C592.959 456.322 556.704 420.067 556.704 375.344C556.704 330.622 592.959 294.367 637.682 294.367" stroke="black" stroke-width="3"/>
<path d="M110.039 456.322C154.762 456.322 191.017 420.067 191.017 375.344C191.017 330.622 154.762 294.367 110.039 294.367" stroke="black" stroke-width="3"/>
<path d="M450.127 641.521C450.127 596.798 413.872 560.543 369.149 560.543C324.427 560.543 288.172 596.798 288.172 641.521" stroke="black" stroke-width="3"/>
<path d="M450.127 113.879C450.127 158.602 413.872 194.856 369.149 194.856C324.427 194.856 288.172 158.602 288.172 113.879" stroke="black" stroke-width="3"/>
</svg>
