<svg width="564" height="621" viewBox="0 0 564 621" fill="none" xmlns="http://www.w3.org/2000/svg">
<line x1="283.139" y1="41.4116" x2="283.139" y2="555.917" stroke="black" stroke-width="4"/>
<path d="M454.902 67.0603C454.902 191.233 377.695 291.896 282.456 291.896C187.216 291.896 110.01 191.233 110.01 67.0603" stroke="black" stroke-width="4"/>
<path d="M283.551 516.896L321.259 594.305H245.842L283.551 516.896Z" fill="#F81414"/>
<path d="M283.551 0.421631L321.259 77.8303H245.842L283.551 0.421631Z" fill="#F81414"/>
<path d="M454.419 28.577L492.128 105.986H416.711L454.419 28.577Z" fill="#F81414"/>
<path d="M110.103 28.577L147.811 105.986H72.3939L110.103 28.577Z" fill="#F81414"/>
<rect x="1.31592" y="90.0349" width="65.9263" height="28.3285" rx="7.5" fill="#E6BA1E" fill-opacity="0.47" stroke="black"/>
<rect x="497.258" y="90.0349" width="65.9263" height="28.3285" rx="7.5" fill="#E6BA1E" fill-opacity="0.47" stroke="black"/>
<rect x="152.942" y="90.0349" width="65.9263" height="28.3285" rx="7.5" fill="#E6BA1E" fill-opacity="0.47" stroke="black"/>
<rect x="345.633" y="90.0349" width="65.9263" height="28.3285" rx="7.5" fill="#E6BA1E" fill-opacity="0.47" stroke="black"/>
<rect x="190.848" y="26.8575" width="65.9263" height="28.3285" rx="7.5" fill="#E6BA1E" fill-opacity="0.47" stroke="black"/>
<rect x="312.464" y="26.8575" width="65.9263" height="28.3285" rx="7.5" fill="#E6BA1E" fill-opacity="0.47" stroke="black"/>
<rect x="189.269" y="541.753" width="65.9263" height="28.3285" rx="7.5" fill="#E6BA1E" fill-opacity="0.47" stroke="black"/>
<rect x="310.885" y="541.753" width="65.9263" height="28.3285" rx="7.5" fill="#E6BA1E" fill-opacity="0.47" stroke="black"/>
<rect x="250.866" y="405.922" width="65.9263" height="28.3285" rx="9.5" fill="white" stroke="black"/>
<rect x="201.904" y="495.949" width="65.9263" height="28.3285" rx="9.5" fill="white" stroke="black"/>
<rect x="296.67" y="495.949" width="65.9263" height="28.3285" rx="9.5" fill="white" stroke="black"/>
<rect x="201.904" y="453.305" width="65.9263" height="28.3285" rx="9.5" fill="white" stroke="black"/>
<rect x="296.67" y="453.305" width="65.9263" height="28.3285" rx="9.5" fill="white" stroke="black"/>
<rect x="250.866" y="358.539" width="65.9263" height="28.3285" rx="9.5" fill="white" stroke="black"/>
<rect x="250.866" y="311.156" width="65.9263" height="28.3285" rx="9.5" fill="white" stroke="black"/>
<rect x="250.866" y="203.754" width="65.9263" height="28.3285" rx="9.5" fill="white" stroke="black"/>
<rect x="250.866" y="156.371" width="65.9263" height="28.3285" rx="9.5" fill="white" stroke="black"/>
<rect x="353.53" y="232.184" width="65.9263" height="28.3285" rx="9.5" fill="white" stroke="black"/>
<rect x="143.465" y="232.184" width="65.9263" height="28.3285" rx="9.5" fill="white" stroke="black"/>
<rect x="391.436" y="184.801" width="65.9263" height="28.3285" rx="9.5" fill="white" stroke="black"/>
<rect x="105.559" y="184.801" width="65.9263" height="28.3285" rx="9.5" fill="white" stroke="black"/>
<rect x="411.969" y="137.418" width="65.9263" height="28.3285" rx="9.5" fill="white" stroke="black"/>
<rect x="85.0259" y="137.418" width="65.9263" height="28.3285" rx="9.5" fill="white" stroke="black"/>
<rect x="250.866" y="108.988" width="65.9263" height="28.3285" rx="9.5" fill="white" stroke="black"/>
</svg>
