<svg width="396" height="396" viewBox="0 0 396 396" fill="none" xmlns="http://www.w3.org/2000/svg">
<rect x="89.5" y="89.1744" width="216.895" height="217.084" stroke="black"/>
<rect x="41.0577" y="41.5" width="314.148" height="312.886" stroke="black"/>
<line x1="2.42972" y1="39.633" x2="358.151" y2="394.366" stroke="black"/>
<line x1="39.1452" y1="1.49879" x2="395.152" y2="357.366" stroke="black"/>
<line x1="393.58" y1="38.9133" x2="37.4315" y2="395.033" stroke="black"/>
<line x1="356.06" y1="2.07275" x2="0.431617" y2="358.033" stroke="black"/>
<line x1="0.235962" y1="224.028" x2="394.58" y2="224.028" stroke="black"/>
<line x1="0.235962" y1="170.028" x2="394.58" y2="170.028" stroke="black"/>
<line x1="170.908" y1="0.41687" x2="170.908" y2="394.761" stroke="black"/>
<line x1="224.908" y1="0.295776" x2="224.908" y2="394.64" stroke="black"/>
<rect x="133.441" y="133.797" width="128.628" height="128.628" fill="white" stroke="black"/>
<path d="M35.3088 360.261L35.6581 385.977L9.59265 359.911L35.3088 360.261Z" fill="#CBDDFF" fill-opacity="0.5"/>
<path d="M91.3088 304.261L91.6581 329.977L65.5927 303.911L91.3088 304.261Z" fill="#CBDDFF" fill-opacity="0.5"/>
<path d="M145.309 250.261L145.658 275.977L119.593 249.911L145.309 250.261Z" fill="#CBDDFF" fill-opacity="0.5"/>
<path d="M360.398 359.261L386.114 358.911L360.048 384.977L360.398 359.261Z" fill="#CBDDFF" fill-opacity="0.5"/>
<path d="M305.398 304.261L331.114 303.911L305.048 329.977L305.398 304.261Z" fill="#CBDDFF" fill-opacity="0.5"/>
<path d="M250.398 251.261L276.114 250.911L250.048 276.977L250.398 251.261Z" fill="#CBDDFF" fill-opacity="0.5"/>
<path d="M360.397 35.1721L360.048 9.45593L386.114 35.5214L360.397 35.1721Z" fill="#CBDDFF" fill-opacity="0.5"/>
<path d="M303.397 92.1721L303.048 66.4559L329.114 92.5214L303.397 92.1721Z" fill="#CBDDFF" fill-opacity="0.5"/>
<path d="M252.397 144.172L252.048 118.456L278.114 144.521L252.397 144.172Z" fill="#CBDDFF" fill-opacity="0.5"/>
<path d="M36.0368 34.8126L10.3207 35.1619L36.3861 9.09644L36.0368 34.8126Z" fill="#CBDDFF" fill-opacity="0.5"/>
<path d="M92.0368 91.8126L66.3207 92.1619L92.3861 66.0964L92.0368 91.8126Z" fill="#CBDDFF" fill-opacity="0.5"/>
<path d="M145.037 143.813L119.321 144.162L145.386 118.096L145.037 143.813Z" fill="#CBDDFF" fill-opacity="0.5"/>
<path d="M7.89514 196.716L25.8322 178.285L25.8322 215.147L7.89514 196.716Z" fill="#FFD5D5" fill-opacity="0.5"/>
<path d="M64.8951 196.716L82.8322 178.285V215.147L64.8951 196.716Z" fill="#FFD5D5" fill-opacity="0.5"/>
<path d="M121.895 196.716L139.832 178.285V215.147L121.895 196.716Z" fill="#FFD5D5" fill-opacity="0.5"/>
<path d="M197.853 387.674L179.422 369.737H216.284L197.853 387.674Z" fill="#FFD5D5" fill-opacity="0.5"/>
<path d="M197.853 330.674L179.422 312.737H216.284L197.853 330.674Z" fill="#FFD5D5" fill-opacity="0.5"/>
<path d="M197.853 273.674L179.422 255.737H216.284L197.853 273.674Z" fill="#FFD5D5" fill-opacity="0.5"/>
<path d="M387.811 196.716L369.874 215.147V178.285L387.811 196.716Z" fill="#FFD5D5" fill-opacity="0.5"/>
<path d="M330.811 196.716L312.874 215.147V178.285L330.811 196.716Z" fill="#FFD5D5" fill-opacity="0.5"/>
<path d="M272.811 196.716L254.874 215.147V178.285L272.811 196.716Z" fill="#FFD5D5" fill-opacity="0.5"/>
<path d="M197.853 6.75842L216.284 24.6955H179.422L197.853 6.75842Z" fill="#FFD5D5" fill-opacity="0.5"/>
<path d="M197.853 64.7584L216.284 82.6955H179.422L197.853 64.7584Z" fill="#FFD5D5" fill-opacity="0.5"/>
<path d="M197.853 122.758L216.284 140.695H179.422L197.853 122.758Z" fill="#FFD5D5" fill-opacity="0.5"/>
<rect x="2.5" y="2.5" width="390.471" height="390.104" stroke="#C8C8C8" stroke-width="5"/>
</svg>
