<?xml version="1.0" encoding="UTF-8"?>
<svg width="386px" height="386px" viewBox="0 0 386 386" version="1.1" xmlns="http://www.w3.org/2000/svg" xmlns:xlink="http://www.w3.org/1999/xlink">
    <title>chakra-sudarshana</title>
    <g id="Page-1" stroke="none" stroke-width="1" fill="none" fill-rule="evenodd">
        <g id="chakra-sudarshana" transform="translate(1.000000, 2.000000)">
            <path d="M204.302,169 L202.75,169 L202.75,163.017 L200.897,163.591 L200.897,162.329 L204.136,161.169 L204.302,161.169 L204.302,169 Z M210.833,169 L205.473,169 L205.473,167.937 L208.003,165.24 C208.35,164.861 208.606,164.529 208.771,164.247 C208.939,163.964 209.023,163.695 209.023,163.441 C209.023,163.094 208.936,162.821 208.76,162.625 C208.585,162.424 208.334,162.324 208.008,162.324 C207.657,162.324 207.38,162.445 207.176,162.689 C206.975,162.929 206.875,163.246 206.875,163.64 L205.317,163.64 C205.317,163.163 205.43,162.728 205.656,162.334 C205.885,161.941 206.207,161.633 206.623,161.411 C207.038,161.185 207.509,161.072 208.035,161.072 C208.841,161.072 209.466,161.266 209.91,161.652 C210.357,162.039 210.581,162.585 210.581,163.291 C210.581,163.677 210.481,164.071 210.28,164.472 C210.08,164.873 209.736,165.34 209.249,165.874 L207.471,167.749 L210.833,167.749 L210.833,169 Z" id="Shape" fill="#000000" fill-rule="nonzero"></path>
            <path d="M217.302,180 L215.75,180 L215.75,174.017 L213.897,174.591 L213.897,173.329 L217.136,172.169 L217.302,172.169 L217.302,180 Z M222.244,180 L220.691,180 L220.691,174.017 L218.838,174.591 L218.838,173.329 L222.077,172.169 L222.244,172.169 L222.244,180 Z" id="Shape" fill="#000000" fill-rule="nonzero"></path>
            <path d="M219.302,194 L217.75,194 L217.75,188.017 L215.897,188.591 L215.897,187.329 L219.136,186.169 L219.302,186.169 L219.302,194 Z M225.737,190.767 C225.737,191.848 225.513,192.675 225.065,193.248 C224.618,193.821 223.963,194.107 223.1,194.107 C222.247,194.107 221.596,193.826 221.145,193.264 C220.693,192.702 220.462,191.896 220.452,190.847 L220.452,189.408 C220.452,188.316 220.677,187.487 221.128,186.921 C221.583,186.355 222.237,186.072 223.089,186.072 C223.941,186.072 224.593,186.353 225.044,186.916 C225.495,187.474 225.726,188.278 225.737,189.327 L225.737,190.767 Z M224.185,189.188 C224.185,188.539 224.095,188.069 223.916,187.775 C223.741,187.478 223.465,187.329 223.089,187.329 C222.724,187.329 222.453,187.471 222.278,187.753 C222.106,188.033 222.015,188.471 222.004,189.069 L222.004,190.971 C222.004,191.608 222.09,192.083 222.262,192.394 C222.437,192.702 222.716,192.856 223.1,192.856 C223.479,192.856 223.753,192.707 223.921,192.41 C224.09,192.113 224.177,191.658 224.185,191.046 L224.185,189.188 Z" id="Shape" fill="#000000" fill-rule="nonzero"></path>
            <path d="M219.163,206.874 C218.758,207.271 218.285,207.47 217.745,207.47 C217.054,207.47 216.5,207.234 216.085,206.761 C215.67,206.285 215.462,205.644 215.462,204.838 C215.462,204.326 215.573,203.857 215.795,203.431 C216.021,203.001 216.334,202.668 216.735,202.432 C217.136,202.192 217.587,202.072 218.088,202.072 C218.604,202.072 219.062,202.201 219.463,202.459 C219.864,202.717 220.176,203.087 220.398,203.571 C220.62,204.054 220.733,204.607 220.736,205.23 L220.736,205.805 C220.736,207.109 220.412,208.133 219.764,208.877 C219.116,209.622 218.198,210.02 217.009,210.07 L216.627,210.075 L216.627,208.781 L216.971,208.775 C218.321,208.715 219.052,208.081 219.163,206.874 Z M218.126,206.283 C218.377,206.283 218.591,206.219 218.771,206.09 C218.953,205.961 219.091,205.805 219.184,205.623 L219.184,204.983 C219.184,204.457 219.084,204.049 218.883,203.759 C218.683,203.469 218.414,203.324 218.078,203.324 C217.766,203.324 217.51,203.467 217.31,203.753 C217.109,204.036 217.009,204.393 217.009,204.822 C217.009,205.248 217.105,205.599 217.299,205.875 C217.496,206.147 217.771,206.283 218.126,206.283 Z" id="Shape" fill="#000000" fill-rule="nonzero"></path>
            <path d="M208.629,215.258 C208.629,215.638 208.534,215.974 208.344,216.268 C208.154,216.562 207.893,216.796 207.56,216.972 C207.94,217.154 208.24,217.407 208.462,217.729 C208.684,218.048 208.795,218.424 208.795,218.857 C208.795,219.552 208.559,220.101 208.086,220.506 C207.614,220.907 206.971,221.107 206.158,221.107 C205.345,221.107 204.701,220.905 204.225,220.5 C203.748,220.096 203.51,219.548 203.51,218.857 C203.51,218.424 203.621,218.046 203.843,217.724 C204.065,217.401 204.364,217.151 204.74,216.972 C204.407,216.796 204.146,216.562 203.956,216.268 C203.77,215.974 203.677,215.638 203.677,215.258 C203.677,214.592 203.899,214.062 204.343,213.668 C204.787,213.271 205.39,213.072 206.153,213.072 C206.912,213.072 207.514,213.269 207.958,213.663 C208.405,214.053 208.629,214.585 208.629,215.258 Z M207.238,218.744 C207.238,218.404 207.139,218.132 206.942,217.928 C206.745,217.724 206.48,217.622 206.147,217.622 C205.818,217.622 205.555,217.724 205.358,217.928 C205.161,218.128 205.062,218.4 205.062,218.744 C205.062,219.077 205.159,219.346 205.353,219.55 C205.546,219.754 205.814,219.856 206.158,219.856 C206.495,219.856 206.758,219.757 206.948,219.561 C207.141,219.364 207.238,219.091 207.238,218.744 Z M207.077,215.333 C207.077,215.029 206.996,214.786 206.835,214.603 C206.674,214.417 206.446,214.324 206.153,214.324 C205.863,214.324 205.637,214.413 205.476,214.592 C205.315,214.771 205.234,215.018 205.234,215.333 C205.234,215.645 205.315,215.896 205.476,216.085 C205.637,216.275 205.865,216.37 206.158,216.37 C206.452,216.37 206.677,216.275 206.835,216.085 C206.996,215.896 207.077,215.645 207.077,215.333 Z" id="Shape" fill="#000000" fill-rule="nonzero"></path>
            <polygon id="Path" fill="#000000" fill-rule="nonzero" points="193.849 218.05 190.825 225 189.187 225 192.216 218.437 188.328 218.437 188.328 217.18 193.849 217.18"></polygon>
            <path d="M177.743,213.099 L177.743,214.377 L177.592,214.377 C176.89,214.388 176.325,214.571 175.895,214.925 C175.469,215.28 175.213,215.772 175.127,216.402 C175.542,215.98 176.067,215.769 176.701,215.769 C177.381,215.769 177.922,216.012 178.323,216.499 C178.724,216.986 178.924,217.627 178.924,218.422 C178.924,218.93 178.813,219.39 178.591,219.802 C178.373,220.214 178.061,220.535 177.657,220.764 C177.256,220.993 176.801,221.107 176.292,221.107 C175.469,221.107 174.803,220.821 174.294,220.248 C173.79,219.675 173.537,218.911 173.537,217.955 L173.537,217.396 C173.537,216.547 173.696,215.799 174.015,215.151 C174.337,214.499 174.798,213.996 175.396,213.642 C175.997,213.284 176.694,213.103 177.485,213.099 L177.743,213.099 Z M176.228,217.015 C175.977,217.015 175.75,217.081 175.546,217.213 C175.342,217.342 175.191,217.514 175.095,217.729 L175.095,218.202 C175.095,218.721 175.197,219.127 175.401,219.421 C175.605,219.711 175.891,219.856 176.26,219.856 C176.593,219.856 176.862,219.725 177.066,219.464 C177.274,219.199 177.377,218.857 177.377,218.438 C177.377,218.012 177.274,217.668 177.066,217.407 C176.858,217.145 176.579,217.015 176.228,217.015 Z" id="Shape" fill="#000000" fill-rule="nonzero"></path>
            <path d="M163.763,206.154 L164.214,202.18 L168.597,202.18 L168.597,203.474 L165.487,203.474 L165.293,205.155 C165.662,204.958 166.054,204.86 166.47,204.86 C167.215,204.86 167.798,205.091 168.221,205.553 C168.643,206.015 168.854,206.661 168.854,207.492 C168.854,207.997 168.747,208.45 168.532,208.851 C168.321,209.248 168.017,209.558 167.619,209.78 C167.222,209.998 166.753,210.107 166.212,210.107 C165.739,210.107 165.301,210.013 164.896,209.823 C164.491,209.629 164.171,209.359 163.935,209.012 C163.702,208.664 163.578,208.269 163.564,207.825 L165.1,207.825 C165.132,208.151 165.245,208.405 165.438,208.587 C165.635,208.766 165.891,208.856 166.207,208.856 C166.557,208.856 166.828,208.731 167.018,208.48 C167.207,208.226 167.302,207.868 167.302,207.406 C167.302,206.962 167.193,206.622 166.975,206.385 C166.756,206.149 166.446,206.031 166.045,206.031 C165.677,206.031 165.378,206.127 165.148,206.321 L164.998,206.46 L163.763,206.154 Z" id="Path" fill="#000000" fill-rule="nonzero"></path>
            <path d="M163.124,191.057 L164.01,191.057 L164.01,192.308 L163.124,192.308 L163.124,194 L161.572,194 L161.572,192.308 L158.365,192.308 L158.295,191.331 L161.556,186.18 L163.124,186.18 L163.124,191.057 Z M159.842,191.057 L161.572,191.057 L161.572,188.296 L161.47,188.473 L159.842,191.057 Z" id="Shape" fill="#000000" fill-rule="nonzero"></path>
            <path d="M164.111,175.402 L164.938,175.402 C165.332,175.402 165.624,175.304 165.813,175.107 C166.003,174.91 166.098,174.649 166.098,174.323 C166.098,174.008 166.003,173.762 165.813,173.587 C165.627,173.411 165.369,173.324 165.04,173.324 C164.743,173.324 164.494,173.406 164.293,173.571 C164.093,173.732 163.993,173.943 163.993,174.205 L162.44,174.205 C162.44,173.796 162.55,173.431 162.768,173.109 C162.99,172.783 163.298,172.529 163.692,172.346 C164.089,172.164 164.526,172.072 165.002,172.072 C165.83,172.072 166.478,172.271 166.947,172.668 C167.416,173.062 167.65,173.607 167.65,174.301 C167.65,174.659 167.541,174.989 167.323,175.29 C167.104,175.59 166.818,175.821 166.463,175.982 C166.904,176.14 167.231,176.376 167.446,176.691 C167.665,177.007 167.774,177.379 167.774,177.809 C167.774,178.503 167.52,179.06 167.011,179.479 C166.506,179.898 165.837,180.107 165.002,180.107 C164.222,180.107 163.583,179.902 163.085,179.49 C162.591,179.078 162.344,178.534 162.344,177.857 L163.896,177.857 C163.896,178.151 164.005,178.39 164.224,178.577 C164.446,178.763 164.718,178.856 165.04,178.856 C165.409,178.856 165.697,178.759 165.905,178.566 C166.116,178.369 166.222,178.109 166.222,177.787 C166.222,177.007 165.792,176.616 164.933,176.616 L164.111,176.616 L164.111,175.402 Z" id="Path" fill="#000000" fill-rule="nonzero"></path>
            <path d="M178.892,169 L173.532,169 L173.532,167.937 L176.062,165.24 C176.409,164.861 176.665,164.529 176.83,164.247 C176.998,163.964 177.082,163.695 177.082,163.441 C177.082,163.094 176.994,162.821 176.819,162.625 C176.643,162.424 176.393,162.324 176.067,162.324 C175.716,162.324 175.438,162.445 175.234,162.689 C175.034,162.929 174.934,163.246 174.934,163.64 L173.376,163.64 C173.376,163.163 173.489,162.728 173.714,162.334 C173.944,161.941 174.266,161.633 174.681,161.411 C175.097,161.185 175.567,161.072 176.094,161.072 C176.899,161.072 177.524,161.266 177.968,161.652 C178.416,162.039 178.64,162.585 178.64,163.291 C178.64,163.677 178.539,164.071 178.339,164.472 C178.138,164.873 177.795,165.34 177.308,165.874 L175.53,167.749 L178.892,167.749 L178.892,169 Z" id="Path" fill="#000000" fill-rule="nonzero"></path>
            <polygon id="Path" fill="#000000" fill-rule="nonzero" points="192.302 165 190.75 165 190.75 159.017 188.897 159.591 188.897 158.329 192.136 157.169 192.302 157.169"></polygon>
            <line x1="5.714" y1="240.74" x2="377.844" y2="141.028" id="Path" stroke="#000000"></line>
            <line x1="241.281" y1="377.561" x2="141.569" y2="5.4315" id="Path" stroke="#000000"></line>
            <line x1="5.9727" y1="141.028" x2="378.102" y2="240.74" id="Path" stroke="#000000"></line>
            <line x1="141.569" y1="377.302" x2="241.281" y2="5.1727" id="Path" stroke="#000000"></line>
            <line x1="55.346" y1="327.222" x2="327.764" y2="54.8046" id="Path" stroke="#000000"></line>
            <line x1="327.764" y1="327.929" x2="55.346" y2="55.512" id="Path" stroke="#000000"></line>
            <circle id="Oval" stroke="#000000" stroke-width="3" cx="191.908" cy="191.367" r="191.129"></circle>
            <circle id="Oval" stroke="#000000" transform="translate(191.954000, 190.500000) rotate(-0.095844) translate(-191.954000, -190.500000) " cx="191.954" cy="190.5" r="143.81"></circle>
            <path d="M287.4,191.367 C287.4,244.13 244.466,286.906 191.5,286.906 C138.534,286.906 95.6,244.13 95.6,191.367 C95.6,138.604 138.534,95.827 191.5,95.827 C244.466,95.827 287.4,138.604 287.4,191.367 Z" id="Path" stroke="#000000"></path>
            <path d="M236.273,191.367 C236.273,215.749 216.433,235.518 191.954,235.518 C167.476,235.518 147.635,215.749 147.635,191.367 C147.635,166.985 167.476,147.216 191.954,147.216 C216.433,147.216 236.273,166.985 236.273,191.367 Z" id="Path" stroke="#000000"></path>
        </g>
    </g>
</svg>