<?xml version="1.0" encoding="UTF-8"?>
<svg width="722px" height="722px" viewBox="33 33 722 722" version="1.1" xmlns="http://www.w3.org/2000/svg" xmlns:xlink="http://www.w3.org/1999/xlink">
    <title>dial-chart</title>
    <g id="Page-1" stroke="none" stroke-width="1" fill="none" fill-rule="evenodd">
        <g id="dial-chart">
            <circle id="Oval" stroke="#000000" stroke-width="2" fill="#FFFFFF" cx="394" cy="393.5" r="360"></circle>
            <g id="all-ticks" stroke="#000000" stroke-linecap="square">
                <g id="ticks-1" transform="translate(33.000000, 232.000000)">
                    <line x1="0" y1="160.5" x2="720" y2="160.5" id="Line-2" transform="translate(360.000000, 160.500000) rotate(3.750000) translate(-360.000000, -160.500000) "></line>
                    <line x1="-1.42108547e-14" y1="160.5" x2="720" y2="160.5" id="Line-2" transform="translate(360.000000, 160.500000) rotate(7.500000) translate(-360.000000, -160.500000) "></line>
                    <line x1="-1.42108547e-14" y1="160.5" x2="720" y2="160.5" id="Line-2" transform="translate(360.000000, 160.500000) rotate(11.250000) translate(-360.000000, -160.500000) "></line>
                    <line x1="4.26325641e-14" y1="160.5" x2="720" y2="160.5" id="Line-2" transform="translate(360.000000, 160.500000) rotate(15.000000) translate(-360.000000, -160.500000) "></line>
                    <line x1="9.9475983e-14" y1="160.5" x2="720" y2="160.5" id="Line-2" transform="translate(360.000000, 160.500000) rotate(18.750000) translate(-360.000000, -160.500000) "></line>
                    <line x1="1.27897692e-13" y1="160.5" x2="720" y2="160.5" id="Line-2" transform="translate(360.000000, 160.500000) rotate(22.500000) translate(-360.000000, -160.500000) "></line>
                    <line x1="4.26325641e-14" y1="160.5" x2="720" y2="160.5" id="Line-2" transform="translate(360.000000, 160.500000) rotate(22.500000) translate(-360.000000, -160.500000) "></line>
                    <line x1="7.10542736e-14" y1="160.5" x2="720" y2="160.5" id="Line-2" transform="translate(360.000000, 160.500000) rotate(26.250000) translate(-360.000000, -160.500000) "></line>
                </g>
                <g id="ticks-2" transform="translate(393.000000, 392.500000) rotate(30.000000) translate(-393.000000, -392.500000) translate(33.000000, 232.000000)">
                    <line x1="0" y1="160.5" x2="720" y2="160.5" id="Line-2" transform="translate(360.000000, 160.500000) rotate(3.750000) translate(-360.000000, -160.500000) "></line>
                    <line x1="-1.42108547e-14" y1="160.5" x2="720" y2="160.5" id="Line-2" transform="translate(360.000000, 160.500000) rotate(7.500000) translate(-360.000000, -160.500000) "></line>
                    <line x1="-1.42108547e-14" y1="160.5" x2="720" y2="160.5" id="Line-2" transform="translate(360.000000, 160.500000) rotate(11.250000) translate(-360.000000, -160.500000) "></line>
                    <line x1="4.26325641e-14" y1="160.5" x2="720" y2="160.5" id="Line-2" transform="translate(360.000000, 160.500000) rotate(15.000000) translate(-360.000000, -160.500000) "></line>
                    <line x1="9.9475983e-14" y1="160.5" x2="720" y2="160.5" id="Line-2" transform="translate(360.000000, 160.500000) rotate(18.750000) translate(-360.000000, -160.500000) "></line>
                    <line x1="1.27897692e-13" y1="160.5" x2="720" y2="160.5" id="Line-2" transform="translate(360.000000, 160.500000) rotate(22.500000) translate(-360.000000, -160.500000) "></line>
                    <line x1="4.26325641e-14" y1="160.5" x2="720" y2="160.5" id="Line-2" transform="translate(360.000000, 160.500000) rotate(22.500000) translate(-360.000000, -160.500000) "></line>
                    <line x1="7.10542736e-14" y1="160.5" x2="720" y2="160.5" id="Line-2" transform="translate(360.000000, 160.500000) rotate(26.250000) translate(-360.000000, -160.500000) "></line>
                </g>
                <g id="ticks-3" transform="translate(393.000000, 392.500000) rotate(60.000000) translate(-393.000000, -392.500000) translate(33.000000, 232.000000)">
                    <line x1="0" y1="160.5" x2="720" y2="160.5" id="Line-2" transform="translate(360.000000, 160.500000) rotate(3.750000) translate(-360.000000, -160.500000) "></line>
                    <line x1="-1.42108547e-14" y1="160.5" x2="720" y2="160.5" id="Line-2" transform="translate(360.000000, 160.500000) rotate(7.500000) translate(-360.000000, -160.500000) "></line>
                    <line x1="-1.42108547e-14" y1="160.5" x2="720" y2="160.5" id="Line-2" transform="translate(360.000000, 160.500000) rotate(11.250000) translate(-360.000000, -160.500000) "></line>
                    <line x1="4.26325641e-14" y1="160.5" x2="720" y2="160.5" id="Line-2" transform="translate(360.000000, 160.500000) rotate(15.000000) translate(-360.000000, -160.500000) "></line>
                    <line x1="9.9475983e-14" y1="160.5" x2="720" y2="160.5" id="Line-2" transform="translate(360.000000, 160.500000) rotate(18.750000) translate(-360.000000, -160.500000) "></line>
                    <line x1="1.27897692e-13" y1="160.5" x2="720" y2="160.5" id="Line-2" transform="translate(360.000000, 160.500000) rotate(22.500000) translate(-360.000000, -160.500000) "></line>
                    <line x1="4.26325641e-14" y1="160.5" x2="720" y2="160.5" id="Line-2" transform="translate(360.000000, 160.500000) rotate(22.500000) translate(-360.000000, -160.500000) "></line>
                    <line x1="7.10542736e-14" y1="160.5" x2="720" y2="160.5" id="Line-2" transform="translate(360.000000, 160.500000) rotate(26.250000) translate(-360.000000, -160.500000) "></line>
                </g>
                <g id="ticks-4" transform="translate(393.000000, 392.500000) rotate(90.000000) translate(-393.000000, -392.500000) translate(33.000000, 232.000000)">
                    <line x1="0" y1="160.5" x2="720" y2="160.5" id="Line-2" transform="translate(360.000000, 160.500000) rotate(3.750000) translate(-360.000000, -160.500000) "></line>
                    <line x1="-1.42108547e-14" y1="160.5" x2="720" y2="160.5" id="Line-2" transform="translate(360.000000, 160.500000) rotate(7.500000) translate(-360.000000, -160.500000) "></line>
                    <line x1="-1.42108547e-14" y1="160.5" x2="720" y2="160.5" id="Line-2" transform="translate(360.000000, 160.500000) rotate(11.250000) translate(-360.000000, -160.500000) "></line>
                    <line x1="4.26325641e-14" y1="160.5" x2="720" y2="160.5" id="Line-2" transform="translate(360.000000, 160.500000) rotate(15.000000) translate(-360.000000, -160.500000) "></line>
                    <line x1="9.9475983e-14" y1="160.5" x2="720" y2="160.5" id="Line-2" transform="translate(360.000000, 160.500000) rotate(18.750000) translate(-360.000000, -160.500000) "></line>
                    <line x1="1.27897692e-13" y1="160.5" x2="720" y2="160.5" id="Line-2" transform="translate(360.000000, 160.500000) rotate(22.500000) translate(-360.000000, -160.500000) "></line>
                    <line x1="4.26325641e-14" y1="160.5" x2="720" y2="160.5" id="Line-2" transform="translate(360.000000, 160.500000) rotate(22.500000) translate(-360.000000, -160.500000) "></line>
                    <line x1="7.10542736e-14" y1="160.5" x2="720" y2="160.5" id="Line-2" transform="translate(360.000000, 160.500000) rotate(26.250000) translate(-360.000000, -160.500000) "></line>
                </g>
                <g id="ticks-5" transform="translate(393.000000, 392.500000) rotate(120.000000) translate(-393.000000, -392.500000) translate(33.000000, 232.000000)">
                    <line x1="0" y1="160.5" x2="720" y2="160.5" id="Line-2" transform="translate(360.000000, 160.500000) rotate(3.750000) translate(-360.000000, -160.500000) "></line>
                    <line x1="-1.42108547e-14" y1="160.5" x2="720" y2="160.5" id="Line-2" transform="translate(360.000000, 160.500000) rotate(7.500000) translate(-360.000000, -160.500000) "></line>
                    <line x1="-1.42108547e-14" y1="160.5" x2="720" y2="160.5" id="Line-2" transform="translate(360.000000, 160.500000) rotate(11.250000) translate(-360.000000, -160.500000) "></line>
                    <line x1="4.26325641e-14" y1="160.5" x2="720" y2="160.5" id="Line-2" transform="translate(360.000000, 160.500000) rotate(15.000000) translate(-360.000000, -160.500000) "></line>
                    <line x1="9.9475983e-14" y1="160.5" x2="720" y2="160.5" id="Line-2" transform="translate(360.000000, 160.500000) rotate(18.750000) translate(-360.000000, -160.500000) "></line>
                    <line x1="1.27897692e-13" y1="160.5" x2="720" y2="160.5" id="Line-2" transform="translate(360.000000, 160.500000) rotate(22.500000) translate(-360.000000, -160.500000) "></line>
                    <line x1="4.26325641e-14" y1="160.5" x2="720" y2="160.5" id="Line-2" transform="translate(360.000000, 160.500000) rotate(22.500000) translate(-360.000000, -160.500000) "></line>
                    <line x1="7.10542736e-14" y1="160.5" x2="720" y2="160.5" id="Line-2" transform="translate(360.000000, 160.500000) rotate(26.250000) translate(-360.000000, -160.500000) "></line>
                </g>
                <g id="ticks-6" transform="translate(393.000000, 392.500000) rotate(150.000000) translate(-393.000000, -392.500000) translate(33.000000, 232.000000)">
                    <line x1="0" y1="160.5" x2="720" y2="160.5" id="Line-2" transform="translate(360.000000, 160.500000) rotate(3.750000) translate(-360.000000, -160.500000) "></line>
                    <line x1="-1.42108547e-14" y1="160.5" x2="720" y2="160.5" id="Line-2" transform="translate(360.000000, 160.500000) rotate(7.500000) translate(-360.000000, -160.500000) "></line>
                    <line x1="-1.42108547e-14" y1="160.5" x2="720" y2="160.5" id="Line-2" transform="translate(360.000000, 160.500000) rotate(11.250000) translate(-360.000000, -160.500000) "></line>
                    <line x1="4.26325641e-14" y1="160.5" x2="720" y2="160.5" id="Line-2" transform="translate(360.000000, 160.500000) rotate(15.000000) translate(-360.000000, -160.500000) "></line>
                    <line x1="9.9475983e-14" y1="160.5" x2="720" y2="160.5" id="Line-2" transform="translate(360.000000, 160.500000) rotate(18.750000) translate(-360.000000, -160.500000) "></line>
                    <line x1="1.27897692e-13" y1="160.5" x2="720" y2="160.5" id="Line-2" transform="translate(360.000000, 160.500000) rotate(22.500000) translate(-360.000000, -160.500000) "></line>
                    <line x1="4.26325641e-14" y1="160.5" x2="720" y2="160.5" id="Line-2" transform="translate(360.000000, 160.500000) rotate(22.500000) translate(-360.000000, -160.500000) "></line>
                    <line x1="7.10542736e-14" y1="160.5" x2="720" y2="160.5" id="Line-2" transform="translate(360.000000, 160.500000) rotate(26.250000) translate(-360.000000, -160.500000) "></line>
                </g>
            </g>
            <circle id="Oval" stroke="#979797" stroke-width="2" fill="#FFFFFF" cx="393" cy="392.5" r="240"></circle>
            <circle id="Oval" stroke="#000000" stroke-width="2" cx="392.998" cy="392.4983" r="346.665"></circle>
            <circle id="Oval" stroke="#979797" cx="392.999" cy="392.499" r="333.333"></circle>
            <circle id="Oval" stroke="#979797" cx="393" cy="392.5" r="320"></circle>
            <circle id="Oval" stroke="#979797" cx="392.9965" cy="392.4995" r="306.6665"></circle>
            <circle id="Oval" stroke="#979797" cx="392.996" cy="392.496" r="293.33"></circle>
            <circle id="Oval" stroke="#979797" cx="393" cy="392.5" r="280"></circle>
            <circle id="Oval" stroke="#979797" cx="392.9995" cy="392.4995" r="266.6665"></circle>
            <circle id="Oval" stroke="#979797" cx="392.9996" cy="392.499" r="253.333"></circle>
            <circle id="Oval" stroke="#000000" stroke-width="2" fill="#FFFFFF" cx="393" cy="390.5" r="195"></circle>
            <circle id="Oval" stroke="#000000" stroke-width="2" fill="#FFFFFF" cx="390" cy="390" r="150"></circle>
            <circle id="Oval" stroke="#000000" stroke-width="2" fill="#FFFFFF" cx="390" cy="390" r="105"></circle>
            <g id="lines" transform="translate(33.000000, 32.500000)" stroke="#000000" stroke-linecap="square" stroke-width="2">
                <line x1="0" y1="360" x2="720" y2="360" id="Line"></line>
                <line x1="0" y1="360" x2="720" y2="360" id="Line" transform="translate(360.000000, 360.000000) rotate(-60.000000) translate(-360.000000, -360.000000) "></line>
                <line x1="0" y1="360" x2="720" y2="360" id="Line" transform="translate(360.000000, 360.000000) rotate(-30.000000) translate(-360.000000, -360.000000) "></line>
                <line x1="0" y1="360" x2="720" y2="360" id="Line" transform="translate(360.000000, 360.000000) rotate(60.000000) translate(-360.000000, -360.000000) "></line>
                <line x1="0" y1="360" x2="720" y2="360" id="Line" transform="translate(360.000000, 360.000000) rotate(30.000000) translate(-360.000000, -360.000000) "></line>
                <line x1="360" y1="0" x2="360" y2="720" id="Line"></line>
            </g>
        </g>
    </g>
</svg>