<?xml version="1.0" encoding="UTF-8"?>
<svg width="481" height="105" viewBox="0 0 481 105" fill="none" xmlns="http://www.w3.org/2000/svg" id="" class="tgp-exclude default style-svg replaced-svg svg-replaced-0">
<path d="M349 37.9002L342.9 48.6002V81.0002H332.7V49.8002L308.9 8.2002H320.6L342 46.2002L347.2 37.0002C353.867 25.4002 358.1 15.8002 359.9 8.2002H366.2C360.067 18.4002 354.333 28.3002 349 37.9002Z" fill="#E74828"></path>
<path d="M474.777 71.9002L476.977 79.1002L468.077 81.9002L465.277 73.2002V73.0002C459.611 79.1335 453.211 82.2002 446.077 82.2002C434.677 82.2002 428.977 75.9335 428.977 63.4002V29.5002L438.077 26.8002H438.477V63.6002C438.477 67.4669 439.177 70.9669 440.577 74.1002C441.977 77.1669 445.177 78.7002 450.177 78.7002C452.644 78.7002 455.211 78.0002 457.877 76.6002C460.611 75.1335 463.077 73.1669 465.277 70.7002V29.5002L474.377 26.8002H474.777V71.9002Z" fill="#E74828"></path>
<path d="M21.3 10H17.4V43.4H21C31.7333 43.4 38.7333 42.7333 42 41.4H42.2V47.6H42C38.4666 46 31.4666 45.2 21 45.2H17.4V81H7.19995V8.2H47.4L48.7 14.5H48.5C39.6333 11.5 30.5666 10 21.3 10Z" fill="#44142A"></path>
<path d="M58.614 18.4L51.814 11.6L58.614 4.8L65.414 11.6L58.614 18.4ZM53.914 81V29.5L62.914 26.8H63.314V81H53.914Z" fill="#44142A"></path>
<path d="M119.598 45.6V81H110.098V45.4C110.098 41.5333 109.398 38.0667 107.998 35C106.598 31.8667 103.398 30.3 98.3984 30.3C93.0651 30.3 87.9651 32.6667 83.0984 37.4V81H73.5984V29.5L82.6984 26.8H83.0984V35.4C89.2317 29.6 95.6984 26.7 102.498 26.7C113.898 26.7 119.598 33 119.598 45.6Z" fill="#44142A"></path>
<path d="M178.727 79.1L169.827 81.9L167.227 73.7C161.961 79.3667 155.994 82.2 149.327 82.2C142.861 82.2 137.427 79.6667 133.027 74.6C128.694 69.5333 126.527 63.1333 126.527 55.4C126.394 47.2667 128.894 40.4333 134.027 34.9C139.161 29.3 145.261 26.5667 152.327 26.7C158.061 26.7 162.961 28.5333 167.027 32.2V3L176.127 0H176.527V71.9L178.727 79.1ZM167.027 71.4V38.5C165.761 35.4333 163.894 33 161.427 31.2C158.961 29.3333 156.227 28.4 153.227 28.4C148.227 28.4 144.227 30.7667 141.227 35.5C138.227 40.1667 136.727 46.4667 136.727 54.4C136.727 62.2 138.127 68.2333 140.927 72.5C143.727 76.7667 147.561 78.9 152.427 78.9C157.761 78.9 162.627 76.4 167.027 71.4Z" fill="#44142A"></path>
<path d="M191.614 18.4L184.814 11.6L191.614 4.8L198.414 11.6L191.614 18.4ZM186.914 81V29.5L195.914 26.8H196.314V81H186.914Z" fill="#44142A"></path>
<path d="M252.598 45.6V81H243.098V45.4C243.098 41.5333 242.398 38.0667 240.998 35C239.598 31.8667 236.398 30.3 231.398 30.3C226.065 30.3 220.965 32.6667 216.098 37.4V81H206.598V29.5L215.698 26.8H216.098V35.4C222.232 29.6 228.698 26.7 235.498 26.7C246.898 26.7 252.598 33 252.598 45.6Z" fill="#44142A"></path>
<path d="M307.827 85.9C307.827 91.3 305.094 95.8333 299.627 99.5C294.161 103.167 287.527 105 279.727 105C273.194 105 267.761 103.667 263.427 101C259.161 98.3333 257.027 94.8667 257.027 90.6C257.027 88.3333 257.561 86.1 258.627 83.9L264.227 82.3H264.627C263.561 85.1 263.027 87.6 263.027 89.8C263.027 94 264.494 97.3 267.427 99.7C270.427 102.167 274.527 103.4 279.727 103.4C286.327 103.4 291.627 102.133 295.627 99.6C299.627 97.1333 301.627 93.8333 301.627 89.7C301.627 84.2333 297.261 81.2333 288.527 80.7L272.827 79.7C265.027 79.3 261.127 76.5667 261.127 71.5C261.127 68.1667 263.494 65.1 268.227 62.3L270.227 61.1C263.494 57.7667 260.127 52.4667 260.127 45.2C260.127 39.8667 262.161 35.4667 266.227 32C270.361 28.4667 275.461 26.7 281.527 26.7C286.994 26.7 291.561 28.0333 295.227 30.7C298.627 25.9 303.094 23.5 308.627 23.5L307.727 31.5C305.327 30.7667 303.394 30.4 301.927 30.4C299.594 30.4 297.794 30.8333 296.527 31.7C300.594 35.0333 302.627 39.5 302.627 45.1C302.627 50.4333 300.561 54.8333 296.427 58.3C292.361 61.7667 287.294 63.5 281.227 63.5C278.027 63.5 274.927 62.9333 271.927 61.8L269.727 63.3C267.794 64.6333 266.827 66.1333 266.827 67.8C266.827 70.1333 269.161 71.4333 273.827 71.7L290.327 72.7C301.994 73.4333 307.827 77.8333 307.827 85.9ZM269.127 45.1C269.127 50.1 270.227 54.1667 272.427 57.3C274.694 60.3667 277.694 61.9 281.427 61.9C285.227 61.9 288.194 60.4 290.327 57.4C292.527 54.3333 293.627 50.2667 293.627 45.2C293.627 40.1333 292.494 36.0667 290.227 33C288.027 29.8667 285.061 28.3 281.327 28.3C277.594 28.3 274.627 29.8333 272.427 32.9C270.227 35.9667 269.127 40.0333 269.127 45.1Z" fill="#44142A"></path>
<path d="M420.591 44.9698C423.507 35.8347 420.591 25.4349 416.722 22.9053C416.722 22.9053 410.235 17.7054 402.382 21.2188C394.529 24.7322 390.168 31.8117 388.497 35.8347C386.827 39.8578 384.308 52.4375 385.766 62.9586C386.895 71.1064 392.367 82.4934 392.367 82.4934C392.367 82.4934 397.109 72.7025 401.813 69.4233C406.517 66.1441 416.858 56.6625 420.591 44.9698Z" fill="#E74828"></path>
<path d="M357.087 36.6806C349.006 48.344 357.429 62.1194 364.143 69.145C368.292 73.4866 377.449 77.7614 385.114 83.2199C389.852 86.5944 396.806 93.8796 396.806 93.8796C396.806 93.8796 399.879 77.8583 398.968 68.1612C398.058 58.4641 397.003 51.1802 389.492 42.1855C381.981 33.1909 365.168 25.0172 357.087 36.6806Z" fill="#FA9D8A"></path>
<path fill-rule="evenodd" clip-rule="evenodd" d="M387.275 39.8135C385.882 45.5073 384.642 54.8443 385.766 62.9571C386.896 71.1049 392.367 82.4919 392.367 82.4919C392.367 82.4919 395.465 76.0963 399.136 71.912C399.13 70.5957 399.078 69.3323 398.968 68.1611C398.058 58.464 397.003 51.1801 389.492 42.1854C388.823 41.3838 388.079 40.5886 387.275 39.8135Z" fill="#AB361F"></path>
</svg>