<?xml version="1.0" encoding="UTF-8"?>
<svg width="684px" height="684px" viewBox="0 0 684 684" version="1.1" xmlns="http://www.w3.org/2000/svg" xmlns:xlink="http://www.w3.org/1999/xlink">
    <title>lines-96</title>
    <g id="Page-1" stroke="none" stroke-width="1" fill="none" fill-rule="evenodd" stroke-opacity="0.4">
        <g id="lines-96" transform="translate(0.485400, 0.813400)" stroke="#000000">
            <line x1="0.1897" y1="200.2366" x2="682.9946" y2="480.2746" id="Path"></line>
            <line x1="9.9665" y1="178.5096" x2="673.2766" y2="502.0276" id="Path"></line>
            <line x1="20.16996" y1="159.1386" x2="663.1256" y2="521.4256" id="Path"></line>
            <line x1="24.459039" y1="134.2146" x2="653.4616" y2="542.6936" id="Path"></line>
            <line x1="21.18081" y1="107.7085" x2="668.3946" y2="577.9366" id="Path"></line>
            <line x1="24.501379" y1="83.2455" x2="661.7606" y2="599.2886" id="Path"></line>
            <line x1="24.51999" y1="57.2614" x2="658.1746" y2="623.8136" id="Path"></line>
            <line x1="-27.4078558" y1="340.012941" x2="710.592292" y2="340.012941" id="Path" stroke-width="1.0000002" transform="translate(341.592218, 340.012941) scale(-1, 1) rotate(-157.700015) translate(-341.592218, -340.012941) "></line>
            <line x1="-27.3784894" y1="339.999098" x2="710.621432" y2="339.999098" id="Path" stroke-width="0.999999894" transform="translate(341.621471, 339.999098) scale(-1, 1) rotate(-154.000006) translate(-341.621471, -339.999098) "></line>
            <line x1="-27.3521774" y1="339.985631" x2="710.648033" y2="339.985631" id="Path" stroke-width="1.00000029" transform="translate(341.647928, 339.985631) scale(-1, 1) rotate(-150.599993) translate(-341.647928, -339.985631) "></line>
            <line x1="-36.0394652" y1="341.81431" x2="713.960792" y2="341.81431" id="Path" stroke-width="1.00000034" transform="translate(338.960664, 341.814310) scale(-1, 1) rotate(-147.000015) translate(-338.960664, -341.814310) "></line>
            <line x1="-55.21234" y1="337.446109" x2="744.787545" y2="337.446109" id="Path" stroke-width="0.999999856" transform="translate(344.787603, 337.446109) scale(-1, 1) rotate(-144.000012) translate(-344.787603, -337.446109) "></line>
            <line x1="-66.8686724" y1="339.001973" x2="753.13115" y2="339.001973" id="Path" stroke-width="0.999999784" transform="translate(343.131239, 339.001973) scale(-1, 1) rotate(-141.000019) translate(-343.131239, -339.001973) "></line>
            <line x1="-83.6525819" y1="339.731238" x2="766.347152" y2="339.731238" id="Path" stroke-width="0.999999687" transform="translate(341.347285, 339.731238) scale(-1, 1) rotate(-138.200020) translate(-341.347285, -339.731238) "></line>
            <line x1="16.0496299" y1="341.77804" x2="666.049625" y2="341.77804" id="Path" stroke-width="0.999999992" transform="translate(341.049628, 341.778040) scale(-1, 1) rotate(13.499979) translate(-341.049628, -341.778040) "></line>
            <line x1="21.374135" y1="340.177721" x2="666.373871" y2="340.177721" id="Path" stroke-width="0.999999591" transform="translate(343.874003, 340.177721) scale(-1, 1) rotate(8.999977) translate(-343.874003, -340.177721) "></line>
            <line x1="19.5650368" y1="339.477054" x2="659.564824" y2="339.477054" id="Path" stroke-width="0.999999668" transform="translate(339.564930, 339.477054) scale(-1, 1) rotate(4.500002) translate(-339.564930, -339.477054) "></line>
            <line x1="654.1866" y1="340.2556" x2="24.186719" y2="340.2556" id="Path"></line>
            <line x1="658.5776" y1="367.1586" x2="20.55079" y2="316.9446" id="Path"></line>
            <line x1="662.4026" y1="391.8006" x2="25.34394" y2="290.9006" id="Path"></line>
            <line x1="657.0696" y1="415.6206" x2="25.02958" y2="263.8806" id="Path"></line>
            <line x1="479.3976" y1="0.1897" x2="199.3596" y2="682.9946" id="Path"></line>
            <line x1="501.1246" y1="9.9665" x2="177.6066" y2="673.2766" id="Path"></line>
            <line x1="520.4956" y1="20.16997" x2="158.2086" y2="663.1256" id="Path"></line>
            <line x1="545.4196" y1="24.459042" x2="136.9396" y2="653.4616" id="Path"></line>
            <line x1="571.9256" y1="21.18081" x2="101.6973" y2="668.3946" id="Path"></line>
            <line x1="596.3886" y1="24.501382" x2="80.3458" y2="661.7606" id="Path"></line>
            <line x1="622.3726" y1="24.519988" x2="55.8201" y2="658.1746" id="Path"></line>
            <line x1="-29.3788148" y1="341.592218" x2="708.621333" y2="341.592218" id="Path" stroke-width="1.0000002" transform="translate(339.621259, 341.592218) scale(-1, 1) rotate(112.299985) translate(-339.621259, -341.592218) "></line>
            <line x1="-29.3648589" y1="341.621471" x2="708.635063" y2="341.621471" id="Path" stroke-width="0.999999894" transform="translate(339.635102, 341.621471) scale(-1, 1) rotate(115.999994) translate(-339.635102, -341.621471) "></line>
            <line x1="-29.3515364" y1="341.647938" x2="708.648674" y2="341.647938" id="Path" stroke-width="1.00000029" transform="translate(339.648569, 341.647938) scale(-1, 1) rotate(119.400007) translate(-339.648569, -341.647938) "></line>
            <line x1="-37.1802392" y1="338.960667" x2="712.820018" y2="338.960667" id="Path" stroke-width="1.00000034" transform="translate(337.819889, 338.960667) scale(-1, 1) rotate(122.999985) translate(-337.819889, -338.960667) "></line>
            <line x1="-57.811451" y1="344.787613" x2="742.188434" y2="344.787613" id="Path" stroke-width="0.999999856" transform="translate(342.188491, 344.787613) scale(-1, 1) rotate(125.999988) translate(-342.188491, -344.787613) "></line>
            <line x1="-69.3672844" y1="343.131242" x2="750.632538" y2="343.131242" id="Path" stroke-width="0.999999784" transform="translate(340.632627, 343.131242) scale(-1, 1) rotate(128.999981) translate(-340.632627, -343.131242) "></line>
            <line x1="-85.0965049" y1="341.347288" x2="764.903229" y2="341.347288" id="Path" stroke-width="0.999999687" transform="translate(339.903362, 341.347288) scale(-1, 1) rotate(131.799980) translate(-339.903362, -341.347288) "></line>
            <line x1="12.8561624" y1="341.049628" x2="662.856158" y2="341.049628" id="Path" stroke-width="0.999999992" transform="translate(337.856160, 341.049628) scale(-1, 1) rotate(-76.500021) translate(-337.856160, -341.049628) "></line>
            <line x1="16.955611" y1="343.874003" x2="661.955347" y2="343.874003" id="Path" stroke-width="0.999999591" transform="translate(339.455479, 343.874003) scale(-1, 1) rotate(-81.000023) translate(-339.455479, -343.874003) "></line>
            <line x1="20.1572529" y1="339.56393" x2="660.15704" y2="339.56393" id="Path" stroke-width="0.999999668" transform="translate(340.157146, 339.563930) scale(-1, 1) rotate(-85.499998) translate(-340.157146, -339.563930) "></line>
            <line x1="339.3786" y1="654.1866" x2="339.3786" y2="24.1867221" id="Path"></line>
            <line x1="312.4756" y1="658.5776" x2="362.6896" y2="20.55068" id="Path"></line>
            <line x1="287.8336" y1="662.4026" x2="388.7336" y2="25.34394" id="Path"></line>
            <line x1="264.0136" y1="657.0696" x2="415.7536" y2="25.029579" id="Path"></line>
        </g>
    </g>
</svg>